<?xml version="1.0" encoding="utf-8"?>
<!-- Generator: Adobe Illustrator 17.0.2, SVG Export Plug-In . SVG Version: 6.00 Build 0)  -->
<!DOCTYPE svg PUBLIC "-//W3C//DTD SVG 1.1//EN" "http://www.w3.org/Graphics/SVG/1.1/DTD/svg11.dtd">
<svg version="1.1" id="Layer_1" xmlns="http://www.w3.org/2000/svg" xmlns:xlink="http://www.w3.org/1999/xlink" x="0px" y="0px"
	 width="300px" height="300px" viewBox="0 0 300 300" enable-background="new 0 0 300 300" xml:space="preserve">
<g>
	<g>
		<g>
			<g>
				<g>
					<path fill="#212062" d="M70.473,207.71h7.979v5.621h-7.979v16.244H64.29v-39.347h16.355v5.621H70.473V207.71z"/>
					<path fill="#212062" d="M89.805,206.812h8.489v5.62h-8.489v11.523h10.681v5.621H83.623v-39.347h16.863v5.621H89.805V206.812z"
						/>
					<path fill="#212062" d="M110.488,206.812h8.489v5.62h-8.489v11.523h10.681v5.621h-16.863v-39.347h16.863v5.621h-10.681V206.812
						z"/>
					<path fill="#212062" d="M124.989,190.229h9.778c6.186,0,9.223,3.428,9.223,9.726v19.898c0,6.293-3.036,9.723-9.223,9.723
						h-9.778V190.229z M131.171,195.85v28.104h3.486c1.968,0,3.147-1.01,3.147-3.821v-20.461c0-2.808-1.178-3.821-3.147-3.821
						h-3.486V195.85z"/>
					<path fill="#212062" d="M166.413,199.279v1.406c0,4.047-1.234,6.633-3.993,7.925c3.32,1.293,4.613,4.273,4.613,8.431v3.203
						c0,6.071-3.206,9.331-9.386,9.331h-9.725v-39.347h9.329C163.66,190.229,166.413,193.209,166.413,199.279z M154.103,195.85v10.4
						h2.417c2.306,0,3.71-1.013,3.71-4.158v-2.195c0-2.808-0.956-4.046-3.15-4.046L154.103,195.85L154.103,195.85z M154.103,211.871
						v12.083h3.543c2.077,0,3.2-0.955,3.2-3.877v-3.43c0-3.655-1.177-4.777-3.987-4.777L154.103,211.871L154.103,211.871z"/>
					<path fill="#212062" d="M190.749,229.576h-6.24l-1.067-7.138h-7.59l-1.067,7.138h-5.679l6.296-39.347h9.05L190.749,229.576z
						 M176.64,217.098h5.96l-2.98-19.899L176.64,217.098z"/>
					<path fill="#212062" d="M211.488,214.905v5.228c0,6.295-3.15,9.891-9.217,9.891c-6.073,0-9.22-3.597-9.22-9.891v-20.461
						c0-6.295,3.147-9.891,9.22-9.891c6.067,0,9.217,3.597,9.217,9.891v3.821h-5.849v-4.215c0-2.81-1.234-3.878-3.201-3.878
						c-1.97,0-3.206,1.068-3.206,3.878v21.248c0,2.811,1.236,3.823,3.206,3.823c1.967,0,3.201-1.012,3.201-3.823v-5.621H211.488z"/>
					<path fill="#212062" d="M223.345,213.894l-1.913,3.597v12.084h-6.18v-39.347h6.18v17.144l8.096-17.144h6.183l-8.6,17.537
						l8.6,21.809h-6.353L223.345,213.894z"/>
				</g>
			</g>
		</g>
		<g>
			<g>
				<g>
					<path fill="#212062" d="M97.57,97.453c0-9.617-3.36-12.213-8.703-12.213c-5.341,0-8.701,2.898-8.701,10.532v6.87H64.289V96.84
						c0-17.097,8.549-26.866,25.039-26.866c16.484,0,25.033,9.769,25.033,26.866v2.75c0,11.448-3.664,18.622-11.755,21.981
						c8.397,3.665,11.755,11.602,11.755,22.442v8.396c0,17.098-8.549,26.867-25.033,26.867c-16.49,0-25.039-9.769-25.039-26.867
						v-8.855h15.878v9.924c0,7.631,3.36,10.532,8.701,10.532c5.343,0,8.703-2.595,8.703-12.061v-8.396
						c0-9.923-3.36-13.585-10.993-13.585H80.93v-15.267h6.563c6.261,0,10.078-2.747,10.078-11.296v-5.952H97.57z"/>
					<path fill="#212062" d="M124.582,97.758c0-18.014,8.245-27.784,25.644-27.784c16.49,0,25.036,9.769,25.036,26.866v2.75h-15.874
						v-3.819c0-7.634-3.358-10.532-8.704-10.532c-5.952,0-9.309,2.898-9.309,13.129v19.54c2.901-6.107,8.087-9.465,15.572-9.465
						c12.363,0,18.621,8.701,18.621,24.427v19.539c0,17.098-9.008,26.867-25.492,26.867c-16.487,0-25.495-9.769-25.495-26.867
						L124.582,97.758L124.582,97.758z M141.376,134.243v19.236c0,7.631,3.357,10.38,8.701,10.38c5.346,0,8.701-2.749,8.701-10.38
						v-19.236c0-7.631-3.356-10.532-8.701-10.532C144.733,123.711,141.376,126.612,141.376,134.243z"/>
					<path fill="#212062" d="M184.727,96.84c0-17.097,9.005-26.866,25.492-26.866s25.492,9.769,25.492,26.866v55.569
						c0,17.098-9.005,26.867-25.492,26.867c-16.488,0-25.492-9.769-25.492-26.867V96.84z M201.515,153.479
						c0,7.631,3.361,10.532,8.704,10.532c5.343,0,8.701-2.901,8.701-10.532V95.772c0-7.634-3.358-10.532-8.701-10.532
						s-8.704,2.898-8.704,10.532V153.479z"/>
				</g>
			</g>
		</g>
	</g>
</g>
<g>
	<path fill="#EBB300" d="M267.647,57.053c-2.396,3.955-5.864,7.187-9.993,9.304c18.047,23.104,28.814,52.141,28.814,83.645
		c0,75.131-61.219,136.257-136.466,136.257c-75.25,0-136.469-61.126-136.469-136.257c0-75.134,61.219-136.26,136.469-136.26
		c26.9,0,52.005,7.815,73.164,21.287c1.728-4.362,4.648-8.125,8.363-10.878C208.042,8.883,180.042,0,150.002,0
		C67.29,0,0,67.293,0,150.002S67.29,300,150.002,300C232.712,300,300,232.712,300,150.002
		C300,114.926,287.894,82.627,267.647,57.053z"/>
	<path fill="#212062" d="M246.332,22.01c-12.247,0-22.209,9.943-22.209,22.166c0,12.225,9.962,22.169,22.209,22.169
		c12.241,0,22.203-9.945,22.203-22.169C268.535,31.953,258.572,22.01,246.332,22.01z M246.332,55.46
		c-6.214,0-11.269-5.063-11.269-11.284s5.055-11.282,11.269-11.282s11.266,5.061,11.266,11.282S252.546,55.46,246.332,55.46z"/>
</g>
</svg>
