<?xml version="1.0" encoding="utf-8"?>
<!-- Generator: Adobe Illustrator 20.1.0, SVG Export Plug-In . SVG Version: 6.00 Build 0)  -->
<svg version="1.1" id="Layer_1" xmlns="http://www.w3.org/2000/svg" xmlns:xlink="http://www.w3.org/1999/xlink" x="0px" y="0px"
	 viewBox="0 0 163.3 36.7" style="enable-background:new 0 0 163.3 36.7;" xml:space="preserve">
<style type="text/css">
	.st0{fill:#FFFFFF;}
	.st1{fill:#EBB300;}
</style>
<path class="st0" d="M55.1,6c6.4,0,8.6,3.2,8.6,7v12c0,3.7-2.2,7-8.6,7h-9.6V6C45.5,6,55.1,6,55.1,6z M50.4,27.6h4.2
	c3.3,0,4.2-1.3,4.2-3.8v-9.6c0-2.5-0.9-3.8-4.2-3.8h-4.2V27.6z M75.1,28.4c1.8,0,3.7-0.3,5.8-0.9l0.7,3.6c-2.1,0.8-4.7,1.2-7,1.2
	c-6,0-8-2.8-8-7.3v-5c0-4,1.8-7.4,7.9-7.4c6.1,0,7.4,3.5,7.4,7.6v4H71.4v1C71.4,27.5,72.2,28.4,75.1,28.4z M71.4,20.4h6v-0.9
	c0-1.8-0.5-3-2.9-3s-3.2,1.2-3.2,3V20.4z M96.2,8.6c-0.9-0.2-1.9-0.3-2.7-0.3c-1.9,0-2.1,0.8-2.1,2.3v2.4h4.8l-0.3,3.8h-4.6v15.2
	h-4.7V16.7h-3v-3.8h3v-2.6c0-3.9,1.8-5.9,6-5.9c1.5,0,2.8,0.2,4.1,0.5C96.8,4.9,96.2,8.6,96.2,8.6z M112.5,31.9h-3.9l-0.3-1.3
	c-1.7,1.1-3.7,1.7-5.6,1.7c-3.5,0-4.9-2.4-4.9-5.6c0-3.9,1.7-5.3,5.5-5.3h4.6v-2c0-2.1-0.6-2.8-3.6-2.8c-1.7,0-3.6,0.2-5.3,0.6
	l-0.6-3.6c1.8-0.5,4.4-0.9,6.5-0.9c6,0,7.7,2.1,7.7,6.8L112.5,31.9L112.5,31.9z M107.7,24.7h-3.5c-1.6,0-2,0.4-2,1.9
	c0,1.3,0.4,1.9,1.9,1.9c1.4,0,2.7-0.5,3.6-1L107.7,24.7z M115.3,25v-5.2c0-5.1,2.2-7.3,8.2-7.3c1.3,0,3.2,0.2,4.6,0.7l-0.6,3.9
	c-1.3-0.4-3-0.5-3.9-0.5c-2.7,0-3.5,0.8-3.5,3.2V25c0,2.3,0.8,3.2,3.5,3.2c1.2,0,2.6-0.2,3.9-0.5l0.6,3.9c-1.2,0.4-3.1,0.7-4.6,0.7
	C117.5,32.3,115.3,30.1,115.3,25z M142,31.5c-1,0.4-3,0.7-4.2,0.7c-3.5,0-5.2-1.6-5.2-5V16.7h-2.8v-3.8h2.8V8.2l4.7-0.7v5.4h4.9
	l-0.3,3.8h-4.6v9.9c0,1,0.5,1.7,1.7,1.7c0.7,0,1.6-0.2,2.4-0.4L142,31.5L142,31.5z M151.9,32.3c-6.5,0-8.2-3.6-8.2-7.5V20
	c0-3.9,1.7-7.5,8.2-7.5c6.5,0,8.2,3.6,8.2,7.5v4.8C160.2,28.7,158.4,32.3,151.9,32.3z M151.9,16.6c-2.5,0-3.5,1.1-3.5,3.3v5.1
	c0,2.1,1,3.3,3.5,3.3s3.5-1.1,3.5-3.3v-5.1C155.4,17.7,154.5,16.6,151.9,16.6z"/>
<path class="st1" d="M24.9,1.9h9v9.4h-9C24.9,11.3,24.9,1.9,24.9,1.9z M13.6,13.6h9V23h-9C13.6,23,13.6,13.6,13.6,13.6z M13.6,25.4
	h9v9.4h-9C13.6,34.7,13.6,25.4,13.6,25.4z M2.4,25.4h9v9.4h-9C2.4,34.7,2.4,25.4,2.4,25.4z M2.4,1.9h9v9.4h-9V1.9z M24.9,25.4h9v9.4
	h-9C24.9,34.7,24.9,25.4,24.9,25.4z M2.4,13.6h9V23h-9V13.6z M13.6,1.9h9v9.4h-9V1.9z M24.9,13.6h9V23h-9V13.6z"/>
</svg>
