<svg xmlns="http://www.w3.org/2000/svg" width="163.334" height="36.667" viewBox="0 0 163.334 36.667"><g fill="#333"><path d="M55.125 5.961c6.381 0 8.6 3.229 8.6 6.965v11.984c0 3.697-2.219 6.965-8.6 6.965h-9.649v-25.914h9.649zm-4.747 21.594h4.241c3.308 0 4.202-1.323 4.202-3.813v-9.648c0-2.49-.895-3.813-4.202-3.813h-4.241v17.274zM75.108 28.372c1.828 0 3.736-.272 5.797-.895l.74 3.579c-2.139.817-4.709 1.206-6.965 1.206-5.954 0-8.016-2.763-8.016-7.315v-5.02c0-4.007 1.79-7.392 7.861-7.392 6.068 0 7.431 3.541 7.431 7.626v4.046h-10.543v.973c0 2.298.816 3.192 3.695 3.192zm-3.695-7.976h6.03v-.934c0-1.79-.545-3.035-2.879-3.035s-3.151 1.245-3.151 3.035v.934zM96.242 8.607c-.895-.195-1.944-.312-2.723-.312-1.868 0-2.141.817-2.141 2.257v2.374h4.826l-.273 3.774h-4.552v15.175h-4.747v-15.175h-3.034v-3.774h3.034v-2.646c0-3.93 1.83-5.875 6.032-5.875 1.478 0 2.841.194 4.086.544l-.508 3.658zM112.484 31.874h-3.891l-.35-1.284c-1.713 1.128-3.736 1.673-5.642 1.673-3.462 0-4.942-2.374-4.942-5.642 0-3.852 1.673-5.33 5.525-5.33h4.552v-1.985c0-2.101-.583-2.84-3.617-2.84-1.713 0-3.581.233-5.254.583l-.583-3.618c1.79-.545 4.397-.895 6.498-.895 5.952 0 7.703 2.101 7.703 6.847v12.491zm-4.747-7.159h-3.501c-1.556 0-1.985.427-1.985 1.867 0 1.323.428 1.907 1.906 1.907 1.401 0 2.684-.467 3.579-.973v-2.801zM115.295 24.987v-5.175c0-5.097 2.218-7.276 8.171-7.276 1.323 0 3.229.233 4.631.7l-.583 3.892c-1.285-.351-2.998-.507-3.931-.507-2.724 0-3.541.817-3.541 3.152v5.253c0 2.334.816 3.152 3.541 3.152 1.206 0 2.568-.156 3.931-.506l.583 3.891c-1.245.428-3.074.701-4.631.701-5.953-.001-8.171-2.18-8.171-7.277zM141.967 31.524c-1.011.427-2.958.739-4.164.739-3.462 0-5.214-1.635-5.214-5.02v-10.543h-2.839v-3.774h2.839v-4.708l4.747-.662v5.37h4.864l-.312 3.774h-4.552v9.922c0 1.011.467 1.673 1.713 1.673.7 0 1.556-.155 2.373-.389l.545 3.618zM151.94 32.263c-6.498 0-8.248-3.58-8.248-7.471v-4.785c0-3.892 1.749-7.471 8.248-7.471 6.498 0 8.25 3.579 8.25 7.471v4.785c0 3.891-1.751 7.471-8.25 7.471zm0-15.679c-2.529 0-3.501 1.128-3.501 3.268v5.097c0 2.14.971 3.268 3.501 3.268s3.503-1.128 3.503-3.268v-5.097c0-2.14-.973-3.268-3.503-3.268z"/></g><g fill="#EBB300"><path d="M24.851 1.933h9v9.372h-9zM13.601 13.642h9.006v9.383h-9.006zM13.601 25.362h9.006v9.372h-9.006zM2.359 25.362h8.997v9.372h-8.997zM2.359 1.933h8.997v9.372h-8.997zM24.851 25.362h9v9.372h-9zM2.359 13.642h8.997v9.383h-8.997zM13.601 1.933h9.006v9.372h-9.006zM24.851 13.642h9v9.383h-9z"/></g></svg>