<?xml version="1.0" encoding="utf-8"?>
<!-- Generator: Adobe Illustrator 17.0.2, SVG Export Plug-In . SVG Version: 6.00 Build 0)  -->
<!DOCTYPE svg PUBLIC "-//W3C//DTD SVG 1.1//EN" "http://www.w3.org/Graphics/SVG/1.1/DTD/svg11.dtd">
<svg version="1.1" id="Layer_1" xmlns="http://www.w3.org/2000/svg" xmlns:xlink="http://www.w3.org/1999/xlink" x="0px" y="0px"
	 width="379.84px" height="88px" viewBox="0 0 379.84 88" enable-background="new 0 0 379.84 88" xml:space="preserve">
<g>
	<polygon fill="#FFFFFF" points="9.45,11.002 38.864,25.716 38.864,61.728 35.188,60.588 35.188,29.687 16.544,21.813 16.544,67.73 
		27.48,64.85 34.578,67.797 9.45,76.786 	"/>
	<polygon fill="#FFFFFF" points="58.119,10.962 34.03,22.17 39.975,25.089 50.969,21.144 50.969,66.787 32.603,60.775 32.603,29.88 
		28.844,28.365 28.844,64.331 58.119,76.218 	"/>
</g>
<g>
	<path fill="#FFFFFF" d="M84.201,55.089h-4.693v-24.81h4.693V55.089z M90.05,42.535l8.344,12.553h-5.402l-8.12-12.553l7.675-12.255
		h5.326L90.05,42.535z"/>
	<polygon fill="#FFFFFF" points="103.162,55.089 99.809,36.947 104.056,36.947 106.291,49.091 109.904,36.947 114.636,36.947 
		118.211,49.091 120.446,36.947 124.693,36.947 121.339,55.089 116.088,55.089 112.251,42.051 108.415,55.089 	"/>
	<path fill="#FFFFFF" d="M141.232,55.089h-3.726l-0.336-1.229c-1.639,1.081-3.576,1.602-5.402,1.602c-3.315,0-4.73-2.273-4.73-5.402
		c0-3.687,1.601-5.103,5.29-5.103h4.358v-1.899c0-2.011-0.559-2.72-3.465-2.72c-1.638,0-3.427,0.224-5.028,0.559l-0.56-3.465
		c1.714-0.521,4.21-0.856,6.221-0.856c5.699,0,7.377,2.012,7.377,6.557V55.089z M136.687,48.235h-3.353c-1.49,0-1.9,0.41-1.9,1.788
		c0,1.266,0.41,1.826,1.826,1.826c1.341,0,2.571-0.447,3.427-0.931V48.235z"/>
	<polygon fill="#FFFFFF" points="146.074,55.089 146.074,29.534 150.619,28.901 150.619,55.089 	"/>
	<path fill="#FFFFFF" d="M155.833,29.125h4.545v5.252h-4.545V29.125z M155.833,36.947h4.545v18.141h-4.545V36.947z"/>
	<path fill="#FFFFFF" d="M175.24,54.754c-0.968,0.41-2.831,0.707-3.985,0.707c-3.316,0-4.992-1.564-4.992-4.805V40.561h-2.719
		v-3.614h2.719V32.44l4.545-0.633v5.141h4.656l-0.298,3.614h-4.358v9.498c0,0.969,0.446,1.603,1.639,1.603
		c0.67,0,1.49-0.15,2.271-0.374L175.24,54.754z"/>
	<path fill="#FFFFFF" d="M186.08,51.735c1.751,0,3.576-0.26,5.551-0.857l0.708,3.428c-2.049,0.782-4.507,1.155-6.667,1.155
		c-5.7,0-7.675-2.645-7.675-7.004v-4.806c0-3.836,1.714-7.077,7.524-7.077c5.812,0,7.116,3.39,7.116,7.302v3.874h-10.096v0.931
		C182.541,50.879,183.324,51.735,186.08,51.735 M182.541,44.1h5.774v-0.894c0-1.713-0.521-2.906-2.757-2.906
		c-2.234,0-3.017,1.192-3.017,2.906V44.1z"/>
	<path fill="#FFFFFF" d="M196.733,29.125h4.545v5.252h-4.545V29.125z M196.733,36.947h4.545v18.141h-4.545V36.947z"/>
	<path fill="#FFFFFF" d="M216.141,54.754c-0.968,0.41-2.831,0.707-3.985,0.707c-3.316,0-4.992-1.564-4.992-4.805V40.561h-2.719
		v-3.614h2.719V32.44l4.545-0.633v5.141h4.655l-0.298,3.614h-4.358v9.498c0,0.969,0.447,1.603,1.639,1.603
		c0.671,0,1.49-0.15,2.272-0.374L216.141,54.754z"/>
	<path fill="#FFFFFF" d="M225.341,55.461c-1.937,0-4.582-0.447-6.258-1.043l0.633-3.464c1.528,0.448,3.539,0.782,5.402,0.782
		c2.012,0,2.309-0.447,2.309-1.825c0-1.118-0.223-1.677-3.166-2.384c-4.433-1.08-4.954-2.198-4.954-5.699
		c0-3.65,1.602-5.253,6.779-5.253c1.678,0,3.876,0.223,5.439,0.632l-0.447,3.615c-1.379-0.261-3.576-0.522-4.992-0.522
		c-1.974,0-2.309,0.447-2.309,1.565c0,1.453,0.111,1.564,2.569,2.197c5.068,1.342,5.553,2.012,5.553,5.737
		C231.899,53.301,230.818,55.461,225.341,55.461"/>
	<path fill="#FFFFFF" d="M251.751,49.054c0,4.023-1.787,6.406-5.998,6.406c-1.6,0-3.426-0.223-4.842-0.521v7.487l-4.545,0.633
		V36.947h3.614l0.447,1.527c1.602-1.154,3.465-1.899,5.735-1.899c3.651,0,5.588,2.161,5.588,6.296V49.054z M240.912,51.102
		c1.192,0.261,2.719,0.485,4.024,0.485c1.637,0,2.27-0.782,2.27-2.421v-6.407c0-1.49-0.557-2.308-2.234-2.308
		c-1.49,0-3.092,0.744-4.061,1.638V51.102z"/>
	<path fill="#FFFFFF" d="M269.668,55.089h-3.725l-0.334-1.229c-1.639,1.081-3.576,1.602-5.401,1.602
		c-3.315,0-4.731-2.273-4.731-5.402c0-3.687,1.602-5.103,5.289-5.103h4.358v-1.899c0-2.011-0.558-2.72-3.463-2.72
		c-1.639,0-3.428,0.224-5.03,0.559l-0.557-3.465c1.713-0.521,4.209-0.856,6.221-0.856c5.698,0,7.375,2.012,7.375,6.557V55.089z
		 M265.123,48.235h-3.352c-1.49,0-1.9,0.41-1.9,1.788c0,1.266,0.41,1.826,1.826,1.826c1.34,0,2.57-0.447,3.426-0.931V48.235z"/>
	<path fill="#FFFFFF" d="M280.137,55.461c-1.938,0-4.584-0.447-6.26-1.043l0.633-3.464c1.528,0.448,3.541,0.782,5.403,0.782
		c2.01,0,2.309-0.447,2.309-1.825c0-1.118-0.223-1.677-3.169-2.384c-4.431-1.08-4.954-2.198-4.954-5.699
		c0-3.65,1.602-5.253,6.78-5.253c1.676,0,3.875,0.223,5.438,0.632l-0.447,3.615c-1.377-0.261-3.576-0.522-4.992-0.522
		c-1.973,0-2.309,0.447-2.309,1.565c0,1.453,0.113,1.564,2.57,2.197c5.067,1.342,5.551,2.012,5.551,5.737
		C286.692,53.301,285.612,55.461,280.137,55.461"/>
	<path fill="#FFFFFF" d="M306.545,49.054c0,4.023-1.787,6.406-5.998,6.406c-1.6,0-3.426-0.223-4.842-0.521v7.487l-4.545,0.633
		V36.947h3.614l0.447,1.527c1.602-1.154,3.465-1.899,5.735-1.899c3.651,0,5.588,2.161,5.588,6.296V49.054z M295.706,51.102
		c1.192,0.261,2.719,0.485,4.024,0.485c1.637,0,2.27-0.782,2.27-2.421v-6.407c0-1.49-0.557-2.308-2.234-2.308
		c-1.49,0-3.092,0.744-4.061,1.638V51.102z"/>
	<path fill="#FFFFFF" d="M318.093,55.461c-6.221,0-7.897-3.426-7.897-7.151v-4.582c0-3.725,1.676-7.153,7.897-7.153
		s7.897,3.428,7.897,7.153v4.582C325.991,52.034,324.314,55.461,318.093,55.461 M318.093,40.449c-2.423,0-3.352,1.08-3.352,3.129
		v4.88c0,2.049,0.929,3.129,3.352,3.129c2.422,0,3.352-1.08,3.352-3.129v-4.88C321.446,41.529,320.515,40.449,318.093,40.449"/>
	<path fill="#FFFFFF" d="M337.463,55.461c-6.221,0-7.897-3.426-7.897-7.151v-4.582c0-3.725,1.676-7.153,7.897-7.153
		c6.221,0,7.896,3.428,7.896,7.153v4.582C345.359,52.034,343.684,55.461,337.463,55.461 M337.463,40.449
		c-2.423,0-3.352,1.08-3.352,3.129v4.88c0,2.049,0.929,3.129,3.352,3.129c2.422,0,3.352-1.08,3.352-3.129v-4.88
		C340.815,41.529,339.885,40.449,337.463,40.449"/>
	<path fill="#FFFFFF" d="M359.105,40.746c-1.752,0.783-3.166,1.602-4.805,2.645v11.697h-4.545V36.946h3.836l0.299,2.013
		c1.006-0.671,3.166-1.938,4.768-2.385L359.105,40.746z"/>
	<path fill="#FFFFFF" d="M372.254,54.754c-0.969,0.41-2.832,0.707-3.985,0.707c-3.315,0-4.992-1.564-4.992-4.805V40.561h-2.721
		v-3.614h2.721V32.44l4.543-0.633v5.141h4.657l-0.297,3.614h-4.36v9.498c0,0.969,0.449,1.603,1.639,1.603
		c0.672,0,1.492-0.15,2.272-0.374L372.254,54.754z"/>
</g>
</svg>
