<?xml version="1.0" encoding="utf-8"?>
<!-- Generator: Adobe Illustrator 17.0.2, SVG Export Plug-In . SVG Version: 6.00 Build 0)  -->
<!DOCTYPE svg PUBLIC "-//W3C//DTD SVG 1.1//EN" "http://www.w3.org/Graphics/SVG/1.1/DTD/svg11.dtd">
<svg version="1.1" id="Layer_1" xmlns="http://www.w3.org/2000/svg" xmlns:xlink="http://www.w3.org/1999/xlink" x="0px" y="0px"
	 width="80.005px" height="96.573px" viewBox="9.997 1.998 80.005 96.573" enable-background="new 9.997 1.998 80.005 96.573"
	 xml:space="preserve">
<path fill="#5BA4E5" d="M78.28,13.72c-15.62-15.63-40.94-15.63-56.56,0c-15.63,15.62-15.63,40.94,0,56.561L50,98.57l28.28-28.29
	C93.91,54.66,93.91,29.34,78.28,13.72z"/>
<g>
	<rect x="58.14" y="22.542" fill="#FFFFFF" width="10.861" height="11.31"/>
	<rect x="44.564" y="36.672" fill="#FFFFFF" width="10.868" height="11.323"/>
	<rect x="44.564" y="50.815" fill="#FFFFFF" width="10.868" height="11.31"/>
	<rect x="30.999" y="50.815" fill="#FFFFFF" width="10.857" height="11.31"/>
	<rect x="30.999" y="22.542" fill="#FFFFFF" width="10.857" height="11.31"/>
	<rect x="58.14" y="50.815" fill="#FFFFFF" width="10.861" height="11.31"/>
	<rect x="30.999" y="36.672" fill="#FFFFFF" width="10.857" height="11.323"/>
	<rect x="44.564" y="22.542" fill="#FFFFFF" width="10.868" height="11.31"/>
	<rect x="58.14" y="36.672" fill="#FFFFFF" width="10.861" height="11.323"/>
</g>
</svg>
